<svg width="259" height="86" viewBox="0 0 259 86" fill="none" xmlns="http://www.w3.org/2000/svg">
<path d="M32.1818 20.0909C31.9545 16.9091 30.7348 14.2955 28.5227 12.25C26.3258 10.2045 23.4242 9.18182 19.8182 9.18182C17.4545 9.18182 15.3409 9.63636 13.4773 10.5455C11.6136 11.4545 10.1439 12.7045 9.06818 14.2955C7.99242 15.8712 7.45455 17.6818 7.45455 19.7273C7.45455 20.9091 7.65152 22 8.04545 23C8.43939 24 9.03788 24.9167 9.84091 25.75C10.6591 26.5682 11.6818 27.3106 12.9091 27.9773C14.1515 28.6288 15.6061 29.2121 17.2727 29.7273L22.5455 31.3636C24.5606 31.9848 26.303 32.6818 27.7727 33.4545C29.2424 34.2273 30.4545 35.0985 31.4091 36.0682C32.3788 37.0227 33.0985 38.0909 33.5682 39.2727C34.0379 40.4394 34.2727 41.7424 34.2727 43.1818C34.2727 45.6061 33.6515 47.7652 32.4091 49.6591C31.1667 51.553 29.4318 53.0379 27.2045 54.1136C24.9773 55.1894 22.3939 55.7273 19.4545 55.7273C16.6212 55.7273 14.1439 55.2348 12.0227 54.25C9.90152 53.25 8.2197 51.8788 6.97727 50.1364C5.75 48.3788 5.06061 46.3636 4.90909 44.0909H6.36364C6.51515 46.0909 7.14394 47.8561 8.25 49.3864C9.35606 50.9167 10.8561 52.1136 12.75 52.9773C14.6591 53.8409 16.8939 54.2727 19.4545 54.2727C22.1212 54.2727 24.4545 53.8106 26.4545 52.8864C28.4697 51.947 30.0303 50.6439 31.1364 48.9773C32.2576 47.3106 32.8182 45.3788 32.8182 43.1818C32.8182 41.5152 32.4545 40.053 31.7273 38.7955C31 37.5227 29.8561 36.4015 28.2955 35.4318C26.7348 34.4621 24.697 33.5909 22.1818 32.8182L16.9091 31.1818C13.2576 30.0303 10.5227 28.5076 8.70455 26.6136C6.90152 24.7197 6 22.4242 6 19.7273C6 17.4394 6.59848 15.3939 7.79545 13.5909C8.99242 11.7727 10.6288 10.3409 12.7045 9.29545C14.7955 8.25 17.1667 7.72727 19.8182 7.72727C22.4848 7.72727 24.8258 8.25757 26.8409 9.31818C28.8561 10.3788 30.4545 11.8409 31.6364 13.7045C32.8182 15.5682 33.4848 17.697 33.6364 20.0909H32.1818ZM46.4602 55V8.45454H71.2784V9.90909H47.9148V31H69.9148V32.4545H47.9148V53.5455H71.9148V55H46.4602ZM80.1989 8.45454L96.1989 53.1818H96.3807L112.381 8.45454H113.926L97.2898 55H95.2898L78.6534 8.45454H80.1989ZM123.273 55V8.45454H148.091V9.90909H124.727V31H146.727V32.4545H124.727V53.5455H148.727V55H123.273ZM160.648 55V8.45454H174.284C176.89 8.45454 179.193 9.00757 181.193 10.1136C183.208 11.2197 184.784 12.7651 185.92 14.75C187.072 16.7348 187.648 19.0606 187.648 21.7273C187.648 24.3636 187.072 26.6742 185.92 28.6591C184.784 30.6288 183.208 32.1667 181.193 33.2727C179.193 34.3636 176.89 34.9091 174.284 34.9091H161.375V33.4545H174.284C176.617 33.4545 178.678 32.9697 180.466 32C182.254 31.0303 183.655 29.6667 184.67 27.9091C185.686 26.1515 186.193 24.0909 186.193 21.7273C186.193 19.3485 185.686 17.2727 184.67 15.5C183.655 13.7273 182.254 12.3561 180.466 11.3864C178.678 10.4015 176.617 9.90909 174.284 9.90909H162.102V55H160.648ZM178.375 33.8182L189.83 55H188.193L176.739 33.8182H178.375ZM201.477 8.45454V55H200.023V8.45454H201.477ZM250.932 8.45454V55H249.477L217.659 11.1818H217.477V55H216.023V8.45454H217.477L249.295 52.2727H249.477V8.45454H250.932Z" fill="black"/>
<path d="M39.733 73.2727V73.892H35.8636V73.2727H39.733ZM37.1364 82V71.9148C37.1364 71.4754 37.2367 71.1004 37.4375 70.7898C37.6383 70.4792 37.9015 70.2424 38.2273 70.0795C38.5568 69.9167 38.911 69.8352 39.2898 69.8352C39.4905 69.8352 39.661 69.8523 39.8011 69.8864C39.9451 69.9167 40.0701 69.9527 40.1761 69.9943L39.9716 70.608C39.8845 70.5777 39.7898 70.5511 39.6875 70.5284C39.589 70.5057 39.4716 70.4943 39.3352 70.4943C38.8958 70.4943 38.5341 70.6288 38.25 70.8977C37.9659 71.1667 37.8239 71.5417 37.8239 72.0227L37.8182 82H37.1364ZM44.7756 82.1818C44.0559 82.1818 43.4157 81.9886 42.8551 81.6023C42.2945 81.2121 41.8532 80.6761 41.5312 79.9943C41.2093 79.3125 41.0483 78.536 41.0483 77.6648C41.0483 76.7898 41.2093 76.0133 41.5312 75.3352C41.8532 74.6534 42.2945 74.1174 42.8551 73.7273C43.4157 73.3371 44.0559 73.142 44.7756 73.142C45.4953 73.142 46.1354 73.3371 46.696 73.7273C47.2566 74.1174 47.6979 74.6534 48.0199 75.3352C48.3419 76.017 48.5028 76.7936 48.5028 77.6648C48.5028 78.536 48.3419 79.3125 48.0199 79.9943C47.6979 80.6761 47.2566 81.2121 46.696 81.6023C46.1354 81.9886 45.4953 82.1818 44.7756 82.1818ZM44.7756 81.5398C45.3854 81.5398 45.9176 81.3674 46.3722 81.0227C46.8305 80.678 47.1847 80.2121 47.4347 79.625C47.6884 79.0379 47.8153 78.3845 47.8153 77.6648C47.8153 76.9451 47.6884 76.2936 47.4347 75.7102C47.1809 75.1231 46.8267 74.6572 46.3722 74.3125C45.9176 73.964 45.3854 73.7898 44.7756 73.7898C44.1657 73.7898 43.6335 73.964 43.179 74.3125C42.7244 74.6572 42.3703 75.1231 42.1165 75.7102C41.8627 76.2936 41.7358 76.9451 41.7358 77.6648C41.7358 78.3845 41.8608 79.0379 42.1108 79.625C42.3646 80.2121 42.7188 80.678 43.1733 81.0227C43.6316 81.3674 44.1657 81.5398 44.7756 81.5398ZM53.9759 73.2727V73.892H50.1634V73.2727H53.9759ZM51.4531 71.1818H52.1406V79.9375C52.1406 80.2936 52.2088 80.5852 52.3452 80.8125C52.4853 81.036 52.6671 81.2027 52.8906 81.3125C53.1179 81.4186 53.3603 81.4716 53.6179 81.4716C53.7429 81.4716 53.8509 81.4621 53.9418 81.4432C54.0365 81.4242 54.1255 81.3996 54.2088 81.3693L54.3793 82C54.2732 82.0379 54.1558 82.0701 54.027 82.0966C53.8982 82.1269 53.7467 82.142 53.5724 82.142C53.2088 82.142 52.8641 82.0606 52.5384 81.8977C52.2164 81.7348 51.955 81.4981 51.7543 81.1875C51.5535 80.8769 51.4531 80.5019 51.4531 80.0625V71.1818ZM59.6974 82.1818C58.9777 82.1818 58.3376 81.9886 57.777 81.6023C57.2164 81.2121 56.7751 80.6761 56.4531 79.9943C56.1312 79.3125 55.9702 78.536 55.9702 77.6648C55.9702 76.7898 56.1312 76.0133 56.4531 75.3352C56.7751 74.6534 57.2164 74.1174 57.777 73.7273C58.3376 73.3371 58.9777 73.142 59.6974 73.142C60.4171 73.142 61.0573 73.3371 61.6179 73.7273C62.1785 74.1174 62.6198 74.6534 62.9418 75.3352C63.2637 76.017 63.4247 76.7936 63.4247 77.6648C63.4247 78.536 63.2637 79.3125 62.9418 79.9943C62.6198 80.6761 62.1785 81.2121 61.6179 81.6023C61.0573 81.9886 60.4171 82.1818 59.6974 82.1818ZM59.6974 81.5398C60.3073 81.5398 60.8395 81.3674 61.294 81.0227C61.7524 80.678 62.1065 80.2121 62.3565 79.625C62.6103 79.0379 62.7372 78.3845 62.7372 77.6648C62.7372 76.9451 62.6103 76.2936 62.3565 75.7102C62.1027 75.1231 61.7486 74.6572 61.294 74.3125C60.8395 73.964 60.3073 73.7898 59.6974 73.7898C59.0876 73.7898 58.5554 73.964 58.1009 74.3125C57.6463 74.6572 57.2921 75.1231 57.0384 75.7102C56.7846 76.2936 56.6577 76.9451 56.6577 77.6648C56.6577 78.3845 56.7827 79.0379 57.0327 79.625C57.2865 80.2121 57.6406 80.678 58.0952 81.0227C58.5535 81.3674 59.0876 81.5398 59.6974 81.5398ZM71.358 75.1534L70.7159 75.3239C70.6136 75.0057 70.4678 74.7311 70.2784 74.5C70.089 74.2689 69.8504 74.0909 69.5625 73.9659C69.2784 73.8371 68.9375 73.7727 68.5398 73.7727C67.8996 73.7727 67.375 73.9318 66.9659 74.25C66.5606 74.5682 66.358 74.983 66.358 75.4943C66.358 75.911 66.4962 76.2557 66.7727 76.5284C67.0492 76.7973 67.4716 77.0019 68.0398 77.142L69.3807 77.4773C70.0701 77.6477 70.589 77.9242 70.9375 78.3068C71.286 78.6856 71.4602 79.1572 71.4602 79.7216C71.4602 80.2027 71.3295 80.6288 71.0682 81C70.8068 81.3712 70.4451 81.661 69.983 81.8693C69.5246 82.0777 68.9905 82.1818 68.3807 82.1818C67.5663 82.1818 66.8977 81.9924 66.375 81.6136C65.8523 81.2311 65.517 80.6837 65.3693 79.9716L66.0341 79.8011C66.1591 80.3693 66.4186 80.803 66.8125 81.1023C67.2102 81.3977 67.7311 81.5455 68.375 81.5455C69.0871 81.5455 69.661 81.3769 70.0966 81.0398C70.536 80.7027 70.7557 80.2708 70.7557 79.7443C70.7557 79.3428 70.6269 79.0038 70.3693 78.7273C70.1117 78.4508 69.7216 78.2481 69.1989 78.1193L67.8068 77.7784C67.0947 77.6042 66.5606 77.3258 66.2045 76.9432C65.8485 76.5568 65.6705 76.0814 65.6705 75.517C65.6705 75.0473 65.7936 74.6345 66.0398 74.2784C66.286 73.9223 66.625 73.6439 67.0568 73.4432C67.4886 73.2424 67.983 73.142 68.5398 73.142C69.2784 73.142 69.8807 73.3163 70.3466 73.6648C70.8125 74.0133 71.1496 74.5095 71.358 75.1534ZM74.5526 76.3409V82H73.8594V70.3636H74.5526V74.6534H74.6207C74.8253 74.1989 75.151 73.8371 75.598 73.5682C76.0488 73.2955 76.5885 73.1591 77.2173 73.1591C77.8045 73.1591 78.3215 73.2841 78.7685 73.5341C79.2154 73.7803 79.5639 74.1345 79.8139 74.5966C80.0677 75.0549 80.1946 75.6042 80.1946 76.2443V82H79.5071V76.2727C79.5071 75.5265 79.2855 74.928 78.8423 74.4773C78.3991 74.0265 77.8139 73.8011 77.0866 73.8011C76.598 73.8011 76.1624 73.9072 75.7798 74.1193C75.3973 74.3314 75.0961 74.6288 74.8764 75.0114C74.6605 75.3902 74.5526 75.8333 74.5526 76.3409ZM86.3068 82.1818C85.5871 82.1818 84.947 81.9886 84.3864 81.6023C83.8258 81.2121 83.3845 80.6761 83.0625 79.9943C82.7405 79.3125 82.5795 78.536 82.5795 77.6648C82.5795 76.7898 82.7405 76.0133 83.0625 75.3352C83.3845 74.6534 83.8258 74.1174 84.3864 73.7273C84.947 73.3371 85.5871 73.142 86.3068 73.142C87.0265 73.142 87.6667 73.3371 88.2273 73.7273C88.7879 74.1174 89.2292 74.6534 89.5511 75.3352C89.8731 76.017 90.0341 76.7936 90.0341 77.6648C90.0341 78.536 89.8731 79.3125 89.5511 79.9943C89.2292 80.6761 88.7879 81.2121 88.2273 81.6023C87.6667 81.9886 87.0265 82.1818 86.3068 82.1818ZM86.3068 81.5398C86.9167 81.5398 87.4489 81.3674 87.9034 81.0227C88.3617 80.678 88.7159 80.2121 88.9659 79.625C89.2197 79.0379 89.3466 78.3845 89.3466 77.6648C89.3466 76.9451 89.2197 76.2936 88.9659 75.7102C88.7121 75.1231 88.358 74.6572 87.9034 74.3125C87.4489 73.964 86.9167 73.7898 86.3068 73.7898C85.697 73.7898 85.1648 73.964 84.7102 74.3125C84.2557 74.6572 83.9015 75.1231 83.6477 75.7102C83.3939 76.2936 83.267 76.9451 83.267 77.6648C83.267 78.3845 83.392 79.0379 83.642 79.625C83.8958 80.2121 84.25 80.678 84.7045 81.0227C85.1629 81.3674 85.697 81.5398 86.3068 81.5398ZM95.6662 82.1818C94.9465 82.1818 94.3063 81.9886 93.7457 81.6023C93.1851 81.2121 92.7438 80.6761 92.4219 79.9943C92.0999 79.3125 91.9389 78.536 91.9389 77.6648C91.9389 76.7898 92.0999 76.0133 92.4219 75.3352C92.7438 74.6534 93.1851 74.1174 93.7457 73.7273C94.3063 73.3371 94.9465 73.142 95.6662 73.142C96.3859 73.142 97.026 73.3371 97.5866 73.7273C98.1473 74.1174 98.5885 74.6534 98.9105 75.3352C99.2325 76.017 99.3935 76.7936 99.3935 77.6648C99.3935 78.536 99.2325 79.3125 98.9105 79.9943C98.5885 80.6761 98.1473 81.2121 97.5866 81.6023C97.026 81.9886 96.3859 82.1818 95.6662 82.1818ZM95.6662 81.5398C96.276 81.5398 96.8082 81.3674 97.2628 81.0227C97.7211 80.678 98.0753 80.2121 98.3253 79.625C98.5791 79.0379 98.706 78.3845 98.706 77.6648C98.706 76.9451 98.5791 76.2936 98.3253 75.7102C98.0715 75.1231 97.7173 74.6572 97.2628 74.3125C96.8082 73.964 96.276 73.7898 95.6662 73.7898C95.0563 73.7898 94.5241 73.964 94.0696 74.3125C93.6151 74.6572 93.2609 75.1231 93.0071 75.7102C92.7533 76.2936 92.6264 76.9451 92.6264 77.6648C92.6264 78.3845 92.7514 79.0379 93.0014 79.625C93.2552 80.2121 93.6094 80.678 94.0639 81.0227C94.5223 81.3674 95.0563 81.5398 95.6662 81.5398ZM104.866 73.2727V73.892H101.054V73.2727H104.866ZM102.344 71.1818H103.031V79.9375C103.031 80.2936 103.099 80.5852 103.236 80.8125C103.376 81.036 103.558 81.2027 103.781 81.3125C104.009 81.4186 104.251 81.4716 104.509 81.4716C104.634 81.4716 104.741 81.4621 104.832 81.4432C104.927 81.4242 105.016 81.3996 105.099 81.3693L105.27 82C105.164 82.0379 105.046 82.0701 104.918 82.0966C104.789 82.1269 104.637 82.142 104.463 82.142C104.099 82.142 103.755 82.0606 103.429 81.8977C103.107 81.7348 102.846 81.4981 102.645 81.1875C102.444 80.8769 102.344 80.5019 102.344 80.0625V71.1818ZM107.472 82V73.2727H108.159V82H107.472ZM107.818 71.7273C107.667 71.7273 107.534 71.6742 107.42 71.5682C107.311 71.4621 107.256 71.3333 107.256 71.1818C107.256 71.0303 107.311 70.9015 107.42 70.7955C107.53 70.6894 107.663 70.6364 107.818 70.6364C107.97 70.6364 108.1 70.6894 108.21 70.7955C108.324 70.9015 108.381 71.0303 108.381 71.1818C108.381 71.3333 108.326 71.4621 108.216 71.5682C108.106 71.6742 107.973 71.7273 107.818 71.7273ZM111.756 76.3409V82H111.062V73.2727H111.739V74.6534H111.807C112.011 74.2027 112.339 73.8409 112.79 73.5682C113.241 73.2955 113.777 73.1591 114.398 73.1591C114.985 73.1591 115.5 73.2841 115.943 73.5341C116.39 73.7841 116.739 74.1402 116.989 74.6023C117.242 75.0606 117.369 75.608 117.369 76.2443V82H116.676V76.2727C116.676 75.5303 116.455 74.9337 116.011 74.483C115.572 74.0284 114.991 73.8011 114.267 73.8011C113.782 73.8011 113.35 73.9072 112.972 74.1193C112.593 74.3314 112.295 74.6288 112.08 75.0114C111.864 75.3902 111.756 75.8333 111.756 76.3409ZM123.398 85.4545C122.856 85.4545 122.369 85.3826 121.938 85.2386C121.506 85.0985 121.138 84.8977 120.835 84.6364C120.536 84.375 120.307 84.0644 120.148 83.7045L120.727 83.3636C120.856 83.6439 121.04 83.8939 121.278 84.1136C121.517 84.3333 121.813 84.5057 122.165 84.6307C122.521 84.7557 122.932 84.8182 123.398 84.8182C124.239 84.8182 124.903 84.6004 125.392 84.1648C125.884 83.733 126.131 83.0701 126.131 82.1761V80.0057H126.062C125.93 80.3845 125.733 80.7216 125.472 81.017C125.214 81.3087 124.898 81.5379 124.523 81.7045C124.148 81.8712 123.722 81.9545 123.244 81.9545C122.555 81.9545 121.949 81.7765 121.426 81.4205C120.903 81.0644 120.496 80.5644 120.205 79.9205C119.913 79.2727 119.767 78.5114 119.767 77.6364C119.767 76.7614 119.909 75.9867 120.193 75.3125C120.481 74.6345 120.886 74.1042 121.409 73.7216C121.932 73.3352 122.545 73.142 123.25 73.142C123.754 73.142 124.189 73.2386 124.557 73.4318C124.928 73.6212 125.239 73.8731 125.489 74.1875C125.739 74.5019 125.932 74.8466 126.068 75.2216H126.148V73.2727H126.818V82.2045C126.818 82.9318 126.674 83.536 126.386 84.017C126.102 84.4981 125.703 84.858 125.188 85.0966C124.676 85.3352 124.08 85.4545 123.398 85.4545ZM123.307 81.3125C123.89 81.3125 124.392 81.1648 124.812 80.8693C125.237 80.5701 125.563 80.1458 125.79 79.5966C126.021 79.0436 126.136 78.3883 126.136 77.6307C126.136 76.8958 126.025 76.2386 125.801 75.6591C125.578 75.0795 125.254 74.6231 124.83 74.2898C124.405 73.9564 123.898 73.7898 123.307 73.7898C122.705 73.7898 122.191 73.9602 121.767 74.3011C121.343 74.6383 121.017 75.0966 120.79 75.6761C120.566 76.2557 120.455 76.9072 120.455 77.6307C120.455 78.358 120.568 78.9981 120.795 79.5511C121.023 80.1004 121.348 80.5322 121.773 80.8466C122.197 81.1572 122.708 81.3125 123.307 81.3125ZM134.268 82V73.2727H134.956V82H134.268ZM134.615 71.7273C134.464 71.7273 134.331 71.6742 134.217 71.5682C134.107 71.4621 134.053 71.3333 134.053 71.1818C134.053 71.0303 134.107 70.9015 134.217 70.7955C134.327 70.6894 134.46 70.6364 134.615 70.6364C134.767 70.6364 134.897 70.6894 135.007 70.7955C135.121 70.9015 135.178 71.0303 135.178 71.1818C135.178 71.3333 135.123 71.4621 135.013 71.5682C134.903 71.6742 134.77 71.7273 134.615 71.7273ZM138.553 76.3409V82H137.859V73.2727H138.536V74.6534H138.604C138.808 74.2027 139.136 73.8409 139.587 73.5682C140.037 73.2955 140.573 73.1591 141.195 73.1591C141.782 73.1591 142.297 73.2841 142.74 73.5341C143.187 73.7841 143.536 74.1402 143.786 74.6023C144.039 75.0606 144.166 75.608 144.166 76.2443V82H143.473V76.2727C143.473 75.5303 143.251 74.9337 142.808 74.483C142.369 74.0284 141.787 73.8011 141.064 73.8011C140.579 73.8011 140.147 73.9072 139.768 74.1193C139.39 74.3314 139.092 74.6288 138.876 75.0114C138.661 75.3902 138.553 75.8333 138.553 76.3409ZM154.632 73.2727V73.892H150.82V73.2727H154.632ZM152.109 71.1818H152.797V79.9375C152.797 80.2936 152.865 80.5852 153.001 80.8125C153.142 81.036 153.323 81.2027 153.547 81.3125C153.774 81.4186 154.017 81.4716 154.274 81.4716C154.399 81.4716 154.507 81.4621 154.598 81.4432C154.693 81.4242 154.782 81.3996 154.865 81.3693L155.036 82C154.929 82.0379 154.812 82.0701 154.683 82.0966C154.554 82.1269 154.403 82.142 154.229 82.142C153.865 82.142 153.52 82.0606 153.195 81.8977C152.873 81.7348 152.611 81.4981 152.411 81.1875C152.21 80.8769 152.109 80.5019 152.109 80.0625V71.1818ZM162.794 78.9034V73.2727H163.487V82H162.794V80.5852H162.737C162.533 81.036 162.201 81.4034 161.743 81.6875C161.288 81.9716 160.75 82.1136 160.129 82.1136C159.557 82.1136 159.052 81.9886 158.612 81.7386C158.173 81.4886 157.828 81.1345 157.578 80.6761C157.328 80.214 157.203 79.6648 157.203 79.0284V73.2727H157.896V79C157.896 79.7273 158.116 80.3163 158.555 80.767C158.999 81.214 159.571 81.4375 160.271 81.4375C160.726 81.4375 161.144 81.3352 161.527 81.1307C161.91 80.9261 162.216 80.6345 162.447 80.2557C162.679 79.8731 162.794 79.4223 162.794 78.9034ZM169.445 73.2727V73.892H165.632V73.2727H169.445ZM166.922 71.1818H167.609V79.9375C167.609 80.2936 167.678 80.5852 167.814 80.8125C167.954 81.036 168.136 81.2027 168.359 81.3125C168.587 81.4186 168.829 81.4716 169.087 81.4716C169.212 81.4716 169.32 81.4621 169.411 81.4432C169.505 81.4242 169.594 81.3996 169.678 81.3693L169.848 82C169.742 82.0379 169.625 82.0701 169.496 82.0966C169.367 82.1269 169.215 82.142 169.041 82.142C168.678 82.142 168.333 82.0606 168.007 81.8977C167.685 81.7348 167.424 81.4981 167.223 81.1875C167.022 80.8769 166.922 80.5019 166.922 80.0625V71.1818ZM175.101 73.2727V73.892H171.288V73.2727H175.101ZM172.578 71.1818H173.266V79.9375C173.266 80.2936 173.334 80.5852 173.47 80.8125C173.61 81.036 173.792 81.2027 174.016 81.3125C174.243 81.4186 174.485 81.4716 174.743 81.4716C174.868 81.4716 174.976 81.4621 175.067 81.4432C175.161 81.4242 175.25 81.3996 175.334 81.3693L175.504 82C175.398 82.0379 175.281 82.0701 175.152 82.0966C175.023 82.1269 174.872 82.142 174.697 82.142C174.334 82.142 173.989 82.0606 173.663 81.8977C173.341 81.7348 173.08 81.4981 172.879 81.1875C172.679 80.8769 172.578 80.5019 172.578 80.0625V71.1818ZM179.984 82.1875C179.481 82.1875 179.018 82.0871 178.598 81.8864C178.181 81.6856 177.846 81.392 177.592 81.0057C177.342 80.6193 177.217 80.1496 177.217 79.5966C177.217 79.233 177.282 78.9129 177.411 78.6364C177.539 78.3598 177.738 78.1212 178.007 77.9205C178.276 77.7197 178.621 77.5549 179.041 77.4261C179.462 77.2936 179.964 77.1913 180.547 77.1193C180.99 77.0663 181.386 77.0152 181.734 76.9659C182.083 76.9129 182.356 76.8314 182.553 76.7216C182.753 76.6117 182.854 76.4451 182.854 76.2216V75.858C182.854 75.2216 182.653 74.7159 182.251 74.3409C181.85 73.9659 181.297 73.7784 180.592 73.7784C179.967 73.7784 179.441 73.9167 179.013 74.1932C178.589 74.4659 178.291 74.8182 178.121 75.25L177.467 75.0057C177.634 74.589 177.875 74.2424 178.189 73.9659C178.507 73.6894 178.871 73.483 179.28 73.3466C179.693 73.2102 180.125 73.142 180.575 73.142C180.965 73.142 181.337 73.197 181.689 73.3068C182.045 73.4167 182.361 73.5833 182.638 73.8068C182.918 74.0303 183.14 74.3163 183.303 74.6648C183.465 75.0095 183.547 75.4223 183.547 75.9034V82H182.854V80.4261H182.803C182.651 80.7519 182.443 81.0492 182.178 81.3182C181.916 81.5833 181.6 81.7955 181.229 81.9545C180.861 82.1098 180.446 82.1875 179.984 82.1875ZM180.053 81.5455C180.598 81.5455 181.081 81.4129 181.501 81.1477C181.926 80.8788 182.257 80.5114 182.496 80.0455C182.734 79.5795 182.854 79.0511 182.854 78.4602V77.1761C182.767 77.2519 182.64 77.3201 182.473 77.3807C182.31 77.4375 182.125 77.4886 181.916 77.5341C181.712 77.5758 181.496 77.6136 181.268 77.6477C181.045 77.678 180.827 77.7064 180.615 77.733C179.979 77.8087 179.46 77.9261 179.058 78.0852C178.661 78.2405 178.369 78.4451 178.183 78.6989C178.001 78.9527 177.911 79.2595 177.911 79.6193C177.911 80.214 178.115 80.6837 178.524 81.0284C178.933 81.3731 179.443 81.5455 180.053 81.5455ZM191.908 70.3636V82H191.197V70.3636H191.908ZM198.116 73.2727V73.892H194.304V73.2727H198.116ZM195.594 71.1818H196.281V79.9375C196.281 80.2936 196.349 80.5852 196.486 80.8125C196.626 81.036 196.808 81.2027 197.031 81.3125C197.259 81.4186 197.501 81.4716 197.759 81.4716C197.884 81.4716 197.991 81.4621 198.082 81.4432C198.177 81.4242 198.266 81.3996 198.349 81.3693L198.52 82C198.414 82.0379 198.296 82.0701 198.168 82.0966C198.039 82.1269 197.887 82.142 197.713 82.142C197.349 82.142 197.005 82.0606 196.679 81.8977C196.357 81.7348 196.096 81.4981 195.895 81.1875C195.694 80.8769 195.594 80.5019 195.594 80.0625V71.1818ZM203 82.1875C202.496 82.1875 202.034 82.0871 201.614 81.8864C201.197 81.6856 200.862 81.392 200.608 81.0057C200.358 80.6193 200.233 80.1496 200.233 79.5966C200.233 79.233 200.297 78.9129 200.426 78.6364C200.555 78.3598 200.754 78.1212 201.023 77.9205C201.292 77.7197 201.636 77.5549 202.057 77.4261C202.477 77.2936 202.979 77.1913 203.562 77.1193C204.006 77.0663 204.402 77.0152 204.75 76.9659C205.098 76.9129 205.371 76.8314 205.568 76.7216C205.769 76.6117 205.869 76.4451 205.869 76.2216V75.858C205.869 75.2216 205.669 74.7159 205.267 74.3409C204.866 73.9659 204.313 73.7784 203.608 73.7784C202.983 73.7784 202.456 73.9167 202.028 74.1932C201.604 74.4659 201.307 74.8182 201.136 75.25L200.483 75.0057C200.65 74.589 200.89 74.2424 201.205 73.9659C201.523 73.6894 201.886 73.483 202.295 73.3466C202.708 73.2102 203.14 73.142 203.591 73.142C203.981 73.142 204.352 73.197 204.705 73.3068C205.061 73.4167 205.377 73.5833 205.653 73.8068C205.934 74.0303 206.155 74.3163 206.318 74.6648C206.481 75.0095 206.562 75.4223 206.562 75.9034V82H205.869V80.4261H205.818C205.667 80.7519 205.458 81.0492 205.193 81.3182C204.932 81.5833 204.616 81.7955 204.244 81.9545C203.877 82.1098 203.462 82.1875 203 82.1875ZM203.068 81.5455C203.614 81.5455 204.097 81.4129 204.517 81.1477C204.941 80.8788 205.273 80.5114 205.511 80.0455C205.75 79.5795 205.869 79.0511 205.869 78.4602V77.1761C205.782 77.2519 205.655 77.3201 205.489 77.3807C205.326 77.4375 205.14 77.4886 204.932 77.5341C204.727 77.5758 204.511 77.6136 204.284 77.6477C204.061 77.678 203.843 77.7064 203.631 77.733C202.994 77.8087 202.475 77.9261 202.074 78.0852C201.676 78.2405 201.384 78.4451 201.199 78.6989C201.017 78.9527 200.926 79.2595 200.926 79.6193C200.926 80.214 201.131 80.6837 201.54 81.0284C201.949 81.3731 202.458 81.5455 203.068 81.5455ZM210.162 70.3636V82H209.469V70.3636H210.162ZM213.065 82V73.2727H213.753V82H213.065ZM213.412 71.7273C213.26 71.7273 213.128 71.6742 213.014 71.5682C212.904 71.4621 212.849 71.3333 212.849 71.1818C212.849 71.0303 212.904 70.9015 213.014 70.7955C213.124 70.6894 213.257 70.6364 213.412 70.6364C213.563 70.6364 213.694 70.6894 213.804 70.7955C213.918 70.9015 213.974 71.0303 213.974 71.1818C213.974 71.3333 213.92 71.4621 213.81 71.5682C213.7 71.6742 213.567 71.7273 213.412 71.7273ZM218.969 82.1875C218.465 82.1875 218.003 82.0871 217.582 81.8864C217.166 81.6856 216.83 81.392 216.577 81.0057C216.327 80.6193 216.202 80.1496 216.202 79.5966C216.202 79.233 216.266 78.9129 216.395 78.6364C216.524 78.3598 216.723 78.1212 216.991 77.9205C217.26 77.7197 217.605 77.5549 218.026 77.4261C218.446 77.2936 218.948 77.1913 219.531 77.1193C219.974 77.0663 220.37 77.0152 220.719 76.9659C221.067 76.9129 221.34 76.8314 221.537 76.7216C221.738 76.6117 221.838 76.4451 221.838 76.2216V75.858C221.838 75.2216 221.637 74.7159 221.236 74.3409C220.834 73.9659 220.281 73.7784 219.577 73.7784C218.952 73.7784 218.425 73.9167 217.997 74.1932C217.573 74.4659 217.276 74.8182 217.105 75.25L216.452 75.0057C216.618 74.589 216.859 74.2424 217.173 73.9659C217.491 73.6894 217.855 73.483 218.264 73.3466C218.677 73.2102 219.109 73.142 219.56 73.142C219.95 73.142 220.321 73.197 220.673 73.3068C221.029 73.4167 221.346 73.5833 221.622 73.8068C221.902 74.0303 222.124 74.3163 222.287 74.6648C222.45 75.0095 222.531 75.4223 222.531 75.9034V82H221.838V80.4261H221.787C221.635 80.7519 221.427 81.0492 221.162 81.3182C220.901 81.5833 220.584 81.7955 220.213 81.9545C219.846 82.1098 219.431 82.1875 218.969 82.1875ZM219.037 81.5455C219.582 81.5455 220.065 81.4129 220.486 81.1477C220.91 80.8788 221.241 80.5114 221.48 80.0455C221.719 79.5795 221.838 79.0511 221.838 78.4602V77.1761C221.751 77.2519 221.624 77.3201 221.457 77.3807C221.295 77.4375 221.109 77.4886 220.901 77.5341C220.696 77.5758 220.48 77.6136 220.253 77.6477C220.029 77.678 219.812 77.7064 219.599 77.733C218.963 77.8087 218.444 77.9261 218.043 78.0852C217.645 78.2405 217.353 78.4451 217.168 78.6989C216.986 78.9527 216.895 79.2595 216.895 79.6193C216.895 80.214 217.099 80.6837 217.509 81.0284C217.918 81.3731 218.427 81.5455 219.037 81.5455Z" fill="black"/>
</svg>
